<?xml version="1.0" standalone="no"?>
<!DOCTYPE svg PUBLIC "-//W3C//DTD SVG 20010904//EN"
 "http://www.w3.org/TR/2001/REC-SVG-20010904/DTD/svg10.dtd">
<svg version="1.0" xmlns="http://www.w3.org/2000/svg"
 width="446.000000pt" height="318.000000pt" viewBox="0 0 446.000000 318.000000"
 preserveAspectRatio="xMidYMid meet">
<metadata>
Created by potrace 1.16, written by Peter Selinger 2001-2019
</metadata>
<g transform="translate(0.000000,318.000000) scale(0.100000,-0.100000)"
fill="#000000" stroke="none">
<path d="M1670 2968 c-80 -105 -148 -195 -151 -200 -3 -5 -187 77 -409 182
-222 105 -407 189 -411 188 -4 -2 52 -148 125 -325 l133 -323 -28 0 c-15 0
-31 5 -34 10 -3 6 -15 10 -26 10 -13 0 -25 12 -35 35 -8 19 -21 35 -29 35 -8
0 -63 -16 -122 -36 -101 -34 -113 -36 -190 -30 -46 4 -83 5 -83 2 0 -3 14 -25
30 -48 l30 -43 -21 -55 c-37 -97 -17 -193 69 -322 14 -21 23 -40 21 -42 -2 -1
-112 -36 -244 -76 -328 -100 -302 -86 -231 -122 43 -22 55 -32 45 -38 -18 -12
-21 -9 108 -74 65 -32 114 -63 117 -73 3 -10 8 -35 12 -56 5 -32 9 -37 28 -32
11 4 29 9 39 11 10 3 17 0 17 -8 1 -35 15 -40 69 -24 l53 15 81 -40 c79 -40
80 -42 60 -58 -11 -9 -79 -62 -149 -118 -71 -56 -200 -158 -287 -227 l-159
-126 83 0 82 0 -39 -34 -39 -34 149 6 c144 5 149 4 141 -14 -43 -102 -155
-449 -155 -481 0 -15 9 -14 88 4 21 5 22 3 12 -21 -12 -33 -8 -33 125 0 72 18
106 31 109 43 3 9 22 78 42 154 34 126 39 137 60 137 l24 0 -21 -52 c-12 -29
-30 -75 -40 -102 -11 -27 -18 -50 -16 -52 2 -2 20 1 41 7 21 6 40 8 43 5 3 -2
-3 -28 -12 -56 -9 -28 -15 -54 -12 -56 3 -3 22 -1 44 5 58 16 64 15 57 -15 -8
-30 -19 -31 140 9 l90 22 21 64 c29 89 50 92 24 4 -10 -37 -19 -78 -19 -90 0
-21 3 -22 49 -16 47 5 50 4 44 -16 -5 -19 -1 -21 31 -21 l35 0 -5 -97 c-2 -54
-6 -122 -8 -151 -2 -28 -2 -52 1 -52 3 0 18 9 34 21 l29 20 0 -45 c0 -25 3
-46 6 -46 3 0 27 17 53 38 67 56 460 362 465 362 2 0 1 -12 -2 -27 -4 -20 -2
-25 10 -21 8 4 61 17 118 29 94 22 103 26 112 51 l10 28 138 -95 c76 -52 145
-98 153 -101 12 -4 225 129 292 184 53 42 54 42 104 8 78 -55 186 -98 259
-104 61 -5 76 -11 204 -90 76 -46 142 -82 145 -78 3 3 0 60 -8 126 l-14 120
40 34 c23 18 56 56 75 84 19 29 39 52 44 52 5 0 169 -52 366 -115 196 -63 360
-115 364 -115 3 0 0 10 -9 23 -8 13 -12 26 -9 30 4 3 -38 66 -93 139 -380 508
-387 518 -365 518 12 0 516 71 542 76 l25 6 -35 29 c-25 20 -30 29 -18 29 9 0
19 4 22 8 3 5 -78 71 -179 148 -101 76 -184 141 -185 144 0 3 110 83 245 179
135 95 243 177 239 182 -3 5 -17 9 -32 9 -50 0 -56 15 -18 41 20 13 36 27 36
30 0 3 -117 25 -260 49 -143 24 -259 46 -257 49 37 67 52 114 55 182 l4 77
173 198 c96 109 172 200 170 202 -2 3 -25 -3 -51 -12 -26 -9 -52 -16 -57 -16
-5 0 11 23 35 51 80 93 84 91 -84 39 -590 -184 -707 -220 -716 -220 -6 0 -7
85 -4 228 l5 227 -21 -19 -21 -18 -3 70 -3 70 -260 -253 c-143 -140 -263 -250
-266 -247 -4 4 -41 86 -82 182 -42 96 -93 213 -115 259 l-40 84 -25 -39 c-14
-21 -70 -113 -125 -204 -55 -91 -106 -173 -114 -182 -12 -16 -38 5 -273 207
-143 123 -264 224 -270 224 -5 0 -75 -85 -155 -191z m440 -81 c233 -200 254
-216 266 -199 7 10 63 102 124 203 62 101 116 188 121 193 9 10 24 -22 170
-356 35 -82 67 -148 72 -148 5 0 79 69 165 153 326 319 336 328 343 304 3 -12
5 -29 3 -37 -1 -8 -3 -110 -3 -226 l-1 -211 -27 -5 c-16 -3 -80 -2 -143 1
l-114 6 3 51 c1 32 -2 55 -9 59 -16 10 -98 -71 -85 -84 16 -14 59 -25 51 -12
-11 17 0 13 15 -6 13 -15 9 -16 -47 -10 -33 4 -65 2 -70 -3 -12 -12 -314 -34
-325 -23 -4 4 -22 35 -38 68 -28 55 -31 57 -32 30 -1 -29 -1 -29 -8 -5 -9 33
-47 39 -56 10 -4 -11 -2 -27 5 -35 8 -10 8 -13 -2 -11 -7 1 -18 5 -24 9 -12 7
-64 -59 -64 -81 0 -15 3 -15 -61 7 -75 25 -256 42 -355 33 -52 -5 -88 -4 -98
3 -11 7 -22 6 -35 -2 -11 -7 -21 -9 -23 -4 -2 4 -53 6 -115 3 l-111 -4 -32
-85 -32 -85 -32 6 c-22 4 -27 3 -16 -4 12 -8 10 -10 -9 -10 -16 0 -22 4 -17
15 3 8 1 15 -4 15 -6 0 -10 -7 -10 -15 0 -18 -46 -21 -53 -2 -4 9 -8 8 -16 -3
-17 -25 -22 -5 -7 31 7 19 17 45 21 58 7 23 6 24 -34 17 -24 -3 -41 -2 -41 3
0 5 10 11 22 13 24 3 36 34 20 50 -6 6 -37 6 -88 -1 -52 -8 -81 -8 -88 -1 -15
15 -36 12 -30 -5 5 -11 -1 -15 -20 -15 -30 0 -46 -29 -121 -210 -25 -63 -53
-123 -62 -132 -8 -9 -12 -25 -9 -36 4 -10 0 -38 -9 -61 -15 -43 -43 -182 -47
-233 -3 -32 -18 -27 -18 6 0 39 -41 146 -77 199 -50 73 -65 111 -54 139 16 43
77 82 146 93 22 3 50 8 62 11 l22 4 -29 68 -29 67 44 3 43 3 -48 117 c-26 64
-84 205 -128 312 -44 107 -79 196 -77 198 1 1 94 -41 206 -93 112 -53 286
-135 386 -182 101 -48 185 -84 186 -82 22 26 268 351 282 372 15 24 20 26 35
15 10 -7 131 -111 270 -231z m1958 -292 l-161 -186 -41 40 c-57 56 -137 89
-247 104 l-92 12 339 107 c186 59 345 107 352 107 7 1 -61 -82 -150 -184z
m-2645 -279 c9 -1 23 -8 29 -14 7 -7 18 -12 25 -12 18 0 16 -20 -8 -83 -19
-49 -49 -84 -49 -57 0 6 -3 9 -7 8 -16 -3 -43 15 -43 28 0 8 -8 15 -17 15 -18
1 -24 0 -56 -8 -16 -5 -15 -1 5 53 25 69 43 88 78 79 14 -3 33 -7 43 -9z
m1607 -31 c-6 -8 -9 -23 -5 -35 9 -28 55 -28 62 1 5 17 11 19 42 14 20 -3 43
-6 53 -6 9 0 23 -8 32 -18 15 -17 14 -22 -9 -75 -14 -33 -31 -56 -38 -54 -6 2
-33 10 -59 17 -43 12 -46 15 -38 37 11 28 4 34 -42 32 -19 -1 -39 2 -45 5 -6
4 -24 1 -41 -5 -17 -7 -34 -9 -37 -6 -3 3 2 25 11 48 14 36 15 43 3 51 -9 5
11 9 55 9 59 0 67 -2 56 -15z m-1683 -200 c28 -9 54 -23 57 -31 8 -21 -40
-127 -64 -142 -15 -9 -18 -9 -14 1 3 8 -3 13 -16 13 -11 0 -20 -7 -20 -16 0
-8 -10 1 -22 20 -17 27 -23 31 -26 18 -3 -17 -7 -19 -29 -18 -9 1 -6 33 9 78
6 21 19 37 35 43 20 7 24 15 20 35 -3 16 0 23 7 20 6 -3 34 -12 63 -21z m1134
-58 c16 -12 15 -20 -10 -97 -20 -64 -32 -86 -46 -88 -21 -4 -65 -45 -65 -60 0
-6 8 -9 18 -8 11 0 16 -5 13 -14 -2 -8 -6 -27 -9 -42 -2 -15 -10 -32 -17 -38
-10 -8 -11 -1 -5 32 5 24 6 45 4 47 -2 2 -4 -1 -4 -7 0 -7 -5 -12 -11 -12 -6
0 -8 7 -5 17 6 16 6 16 -12 0 -10 -9 -24 -17 -31 -17 -6 0 -14 -7 -17 -15 -4
-8 -12 -15 -19 -15 -7 0 -16 -7 -19 -16 -3 -8 -10 -12 -16 -9 -5 3 -10 1 -10
-5 0 -7 -6 -10 -12 -7 -7 2 -12 15 -10 29 3 21 -3 28 -29 37 -38 13 -45 9 -64
-36 -12 -29 -13 -39 -3 -52 11 -13 -22 9 -42 29 -3 3 -16 5 -29 5 -18 0 -27 7
-32 26 -12 48 7 100 26 69 3 -5 17 -10 30 -10 30 0 44 36 22 58 -14 14 -18 13
-40 -1 -23 -15 -25 -15 -20 2 5 20 50 32 115 31 21 0 40 5 45 13 10 17 66 47
88 47 9 0 13 5 10 10 -4 6 -3 10 2 9 23 -4 35 2 29 16 -3 8 -1 15 3 15 5 0 17
3 27 7 13 5 16 3 11 -10 -3 -9 -2 -17 3 -17 6 0 10 9 10 19 0 10 6 21 14 24 9
4 12 0 9 -13 -7 -26 33 -37 57 -15 15 14 17 22 9 36 -10 19 -5 39 9 39 4 0 14
-6 23 -13z m1643 -26 c131 -22 239 -41 241 -43 4 -4 -415 -302 -429 -305 -6
-2 -26 21 -44 50 -18 28 -50 76 -73 105 -36 47 -38 52 -19 52 12 0 18 5 15 10
-3 6 -16 10 -29 10 -12 0 -37 15 -55 34 l-32 33 45 13 c32 9 138 69 141 79 0
1 108 -17 239 -38z m-3564 -59 c0 -60 -72 -110 -190 -133 -36 -6 -66 -13 -67
-13 -1 -1 2 -18 6 -39 5 -22 5 -37 0 -37 -23 0 -233 113 -219 118 72 27 457
139 463 135 4 -2 7 -16 7 -31z m2920 -134 c0 -25 22 -48 43 -45 5 1 16 -10 24
-25 14 -22 15 -29 3 -42 -15 -19 -27 -13 -14 7 5 7 1 4 -8 -6 -16 -18 -23 -15
-19 6 1 5 -3 5 -9 2 -6 -4 -9 -14 -5 -24 5 -13 4 -13 -6 -4 -10 10 -16 10 -28
0 -13 -9 -13 -8 1 8 15 19 15 21 -3 44 -10 13 -19 19 -19 15 0 -5 -5 -2 -10 6
-9 13 -12 12 -25 -4 -8 -11 -15 -30 -15 -44 0 -13 -4 -21 -8 -18 -5 3 1 42 12
87 16 61 26 84 41 89 25 10 45 -13 45 -52z m-1844 -143 c-13 -44 -28 -81 -35
-81 -6 -1 -15 -2 -20 -3 -5 0 -9 -18 -8 -38 0 -21 -3 -49 -7 -63 l-7 -25 14
24 c11 18 16 21 21 10 3 -8 5 -2 3 12 -5 37 11 54 65 67 61 16 59 16 52 -14
-6 -24 -5 -25 32 -21 22 2 51 9 66 15 15 6 49 14 76 18 44 6 50 4 54 -14 4
-16 11 -19 28 -15 17 5 20 11 15 31 -5 20 -3 23 7 16 23 -17 64 -16 122 5 31
11 56 17 56 14 0 -3 6 -1 13 4 6 6 33 16 59 23 26 7 45 16 43 20 -3 5 3 6 13
3 11 -2 36 3 57 11 37 16 37 16 31 -7 -3 -12 -9 -40 -13 -61 l-6 -39 51 6 50
6 -9 -31 c-12 -42 -25 -54 -32 -29 -3 12 -1 19 4 15 5 -3 9 1 9 9 0 21 -38 10
-51 -14 -9 -18 -5 -23 14 -20 5 1 6 -3 2 -9 -3 -6 -10 -8 -15 -5 -5 3 -11 1
-15 -5 -10 -17 -26 0 -20 21 4 10 2 19 -3 19 -12 0 -25 -48 -16 -61 3 -6 19
-9 35 -7 16 3 29 1 29 -4 0 -4 -4 -8 -10 -8 -5 0 -10 -4 -10 -9 0 -4 16 -3 35
3 28 9 35 16 35 36 0 31 19 61 27 43 3 -10 8 -9 20 2 20 20 57 20 49 0 -8 -22
7 -18 22 6 10 15 21 20 38 16 13 -2 27 0 30 4 9 15 24 10 24 -7 0 -14 5 -13
36 5 26 15 52 21 100 21 36 0 64 -4 64 -10 0 -5 9 -10 19 -10 11 0 23 5 26 10
9 15 75 12 76 -2 0 -10 2 -10 6 0 8 20 43 14 52 -10 5 -14 10 -17 15 -10 14
23 26 13 16 -13 -5 -14 -6 -25 -1 -25 5 0 12 15 16 33 4 17 9 26 12 20 2 -7
13 -13 22 -13 27 0 31 -10 15 -35 -13 -20 -11 -55 5 -55 31 1 48 14 43 33 -4
16 -2 19 11 14 13 -5 15 0 10 29 -6 37 6 45 28 17 8 -9 10 -14 4 -11 -6 4 -10
-11 -10 -38 0 -35 4 -44 17 -44 9 0 19 -4 22 -9 3 -5 17 -11 31 -13 13 -3 23
-2 20 2 -2 3 16 -3 40 -14 24 -11 46 -28 48 -36 4 -14 -7 -13 -77 7 -64 19
-101 23 -181 22 -63 -2 -107 -7 -120 -16 -26 -18 -46 -16 -110 6 -30 11 -55
16 -55 13 0 -4 -4 -1 -8 6 -7 9 -21 8 -67 -7 -43 -14 -62 -17 -75 -9 -24 16
-50 4 -43 -20 4 -18 -17 -31 -62 -37 -5 0 -9 -7 -7 -14 1 -8 -2 -10 -10 -4 -7
4 -15 8 -18 8 -19 2 -37 24 -36 45 1 20 -4 25 -24 25 -17 0 -25 -5 -24 -17 1
-13 -3 -14 -25 -8 -14 5 -52 14 -83 20 -60 12 -79 24 -52 34 8 3 12 2 9 -4 -3
-6 0 -10 8 -10 28 0 25 13 -6 34 -21 15 -31 29 -29 43 3 19 0 20 -41 9 -24 -6
-50 -16 -58 -22 -8 -7 -54 -22 -104 -34 -78 -19 -94 -21 -120 -10 -32 14 -40
17 -55 19 -5 0 -18 11 -29 22 -15 16 -26 20 -46 15 -25 -6 -67 3 -125 27 -28
12 -32 13 -77 20 -30 5 -31 4 -27 -29 2 -20 -1 -38 -9 -46 -12 -10 -5 -16 36
-30 27 -10 54 -15 58 -12 5 3 9 0 9 -6 0 -6 4 -9 8 -6 4 2 14 1 21 -3 7 -5
-15 -11 -55 -15 -42 -4 -71 -3 -78 4 -12 12 -46 13 -46 1 0 -5 -23 -12 -52
-15 -41 -6 -53 -4 -60 8 -11 20 -48 21 -48 1 0 -8 -4 -15 -10 -15 -5 0 -10 7
-10 15 0 13 -11 15 -60 12 -32 -2 -57 -1 -55 3 2 3 -15 12 -38 18 -38 11 -48
11 -86 -7 -29 -12 -56 -17 -78 -14 -26 4 -33 2 -33 -10 0 -9 -5 -19 -12 -23
-7 -5 -8 -3 -3 6 6 10 4 11 -11 6 -10 -5 -27 -11 -36 -13 -10 -3 -15 -9 -12
-14 3 -5 -3 -6 -12 -2 -13 5 -15 3 -9 -8 4 -8 5 -11 0 -7 -4 4 -14 3 -21 -3
-9 -8 -11 -5 -7 11 3 11 9 23 14 26 5 3 9 10 9 16 0 8 -32 9 -107 4 -83 -5
-109 -11 -119 -24 -7 -9 -53 -97 -104 -194 l-92 -178 -164 0 c-90 0 -164 2
-164 4 0 4 230 188 513 411 l88 69 -80 41 -80 40 42 24 c23 13 58 37 78 53 24
20 42 27 55 22 15 -5 16 -4 7 6 -8 9 -6 20 9 46 24 40 27 42 21 11 -9 -47 51
-63 73 -19 l11 22 11 -25 c7 -14 12 -34 12 -45 0 -13 8 -20 28 -22 l27 -4 -35
-15 -35 -16 52 -25 c34 -17 50 -21 46 -12 -3 8 -11 14 -18 14 -8 0 -16 4 -19
9 -4 5 3 7 15 4 11 -3 26 -16 31 -29 14 -29 31 -31 49 -4 14 19 15 19 52 0 63
-31 178 -33 251 -4 16 6 18 4 13 -9 -3 -9 -2 -17 3 -17 6 0 10 5 10 11 0 6 7
9 14 6 9 -4 17 2 21 14 10 32 27 22 21 -13 l-5 -33 11 28 c13 31 28 36 28 10
1 -17 1 -17 14 0 7 9 19 17 27 17 25 0 -13 20 -39 20 -22 0 -22 2 15 45 21 24
46 44 55 45 34 0 48 12 48 40 0 22 16 44 27 36 1 -1 -8 -37 -21 -81z m1945 5
c10 -6 28 -29 40 -51 18 -36 23 -40 47 -34 20 5 30 1 43 -16 l17 -23 56 17
c31 10 62 15 69 11 6 -4 104 -78 215 -163 l204 -155 -294 -42 c-197 -28 -292
-45 -290 -53 2 -10 61 -91 362 -496 123 -164 140 -191 120 -183 -33 12 -547
177 -573 184 -15 3 -29 9 -31 13 -8 12 36 111 49 111 18 0 30 39 16 53 -6 6
-11 45 -11 87 0 41 -5 95 -11 119 -9 42 -8 46 17 66 l28 22 -67 69 c-51 51
-65 73 -61 88 5 15 2 18 -14 14 -12 -3 -36 4 -57 16 l-36 22 24 13 c14 7 33
10 43 7 11 -3 22 -6 27 -6 4 0 23 -7 43 -15 20 -8 41 -12 47 -8 6 4 7 1 2 -7
-5 -8 -3 -11 4 -9 7 3 11 7 10 9 -6 12 23 50 38 50 15 0 15 -2 0 -18 -21 -23
-22 -39 -2 -18 9 9 23 20 32 25 14 8 15 11 2 23 -8 8 -22 17 -31 21 -10 3 -18
11 -18 17 0 5 -9 10 -19 10 -22 0 -81 31 -81 43 0 4 -17 7 -39 7 -21 0 -56 6
-77 13 -22 7 -46 13 -54 12 -8 0 -26 5 -39 12 -14 6 -28 10 -33 7 -4 -3 -8 0
-8 7 0 9 -3 9 -14 0 -12 -10 -13 -9 -9 7 3 14 17 22 42 26 35 5 39 9 47 48 8
38 12 43 34 40 14 -2 33 -4 42 -5 9 -1 14 -5 12 -9 -5 -7 18 -12 39 -9 4 0 7
-3 7 -9 0 -17 26 -11 55 14 20 17 24 25 14 29 -8 3 -10 6 -6 6 5 1 17 -4 28
-9z m-2487 -419 c-8 -16 -23 -31 -34 -34 -15 -4 -20 -13 -18 -34 1 -16 -14
-63 -36 -109 l-37 -80 -62 4 c-34 2 -64 6 -65 7 -2 2 22 54 55 117 45 88 63
114 81 116 12 2 20 7 18 11 -3 4 7 8 21 9 13 1 32 6 41 12 9 5 25 10 34 10 15
0 15 -3 2 -29z m699 -134 c9 -1 17 -5 17 -10 0 -5 6 -7 14 -4 8 3 16 -2 19
-14 6 -24 34 -25 59 -2 18 16 18 16 12 0 -5 -15 4 -22 28 -19 3 1 11 -5 18
-12 9 -11 7 -16 -10 -21 -17 -5 -21 -13 -17 -33 5 -26 -10 -82 -22 -82 -4 0
-13 9 -21 20 -10 14 -26 20 -52 20 -37 0 -37 0 -26 31 6 16 8 32 5 36 -8 7
-41 7 -114 -1 -35 -4 -63 -5 -63 -2 0 20 25 54 36 49 23 -9 45 16 34 37 -15
28 -13 29 28 18 20 -5 45 -10 55 -11z m1227 -113 c0 -8 -4 -13 -9 -10 -5 3
-15 -1 -22 -10 -7 -8 -8 -14 -3 -13 5 1 22 -3 37 -9 15 -7 42 -14 59 -17 16
-3 37 -12 45 -20 9 -10 34 -15 68 -15 30 0 57 -4 60 -10 3 -5 15 -10 26 -10
61 0 -30 -184 -119 -241 -42 -27 -110 -41 -98 -20 9 14 -4 41 -19 41 -15 0
-28 -28 -19 -42 4 -5 -7 -8 -27 -6 -36 3 -62 37 -74 93 -5 28 -5 28 6 8 9 -17
21 -23 48 -24 20 0 44 -2 54 -4 14 -3 17 4 17 35 0 21 -5 42 -10 45 -8 5 -8
11 0 20 6 8 7 21 2 36 l-9 24 -7 -23 c-7 -21 -9 -21 -36 -7 -35 18 -60 19 -60
3 0 -6 -3 -9 -6 -5 -3 3 -3 20 1 37 6 25 11 30 32 28 16 -2 30 4 37 15 9 15 7
22 -12 37 l-24 20 24 29 c26 34 38 38 38 15z m-1130 -143 c0 -6 -4 -13 -10
-16 -5 -3 -10 -16 -10 -28 0 -12 -7 -35 -15 -51 -8 -15 -15 -36 -15 -45 0 -10
-9 -45 -21 -79 -19 -58 -23 -62 -51 -62 -28 0 -30 2 -23 27 3 15 18 38 33 51
l26 25 -23 9 c-12 4 -28 5 -33 1 -7 -3 -8 -1 -4 5 10 16 -16 15 -34 0 -13 -11
-13 -11 -2 2 6 7 12 22 12 31 0 21 -36 35 -53 20 -9 -7 -27 -7 -57 1 -71 17
-70 28 0 29 36 1 72 3 80 4 8 1 41 3 73 4 45 1 59 5 64 19 12 33 35 62 49 62
8 0 14 -4 14 -9z m744 -78 c4 -43 16 -104 27 -137 l20 -60 -23 -18 c-25 -19
-38 -23 -38 -10 0 4 -38 54 -84 112 -85 106 -89 119 -36 120 14 0 45 16 70 35
25 18 48 34 51 34 3 1 9 -34 13 -76z m-388 -141 c34 -48 79 -120 100 -160 37
-69 40 -72 69 -66 27 5 26 2 -17 -26 l-47 -32 -116 78 c-66 44 -115 84 -115
94 0 8 9 49 20 90 30 107 31 110 38 110 4 0 35 -40 68 -88z m-591 -251 c-12
-10 -257 -201 -320 -248 l-42 -33 4 118 c3 64 6 122 8 129 4 12 41 19 166 33
105 11 195 12 184 1z"/>
</g>
</svg>
